<svg width="300" height="301" viewBox="0 0 300 301" fill="none" xmlns="http://www.w3.org/2000/svg">
<path d="M174.71 227.673H141.194C145.508 222.061 148.827 210.836 148.827 193.505V146.296C148.827 128.964 141.194 116.971 129.022 112.128H174.378C214.199 112.128 240.083 135.402 240.083 169.735C240.083 204.399 214.199 227.673 174.71 227.673ZM167.41 114.109V225.692H173.383C197.773 225.692 220.172 202.088 220.172 169.735C220.172 137.713 197.441 114.109 172.885 114.109H167.41Z" fill="white"/>
<path d="M94.8218 237.167C88.185 237.167 83.0415 231.885 83.0415 225.613C83.0415 219.175 88.185 213.893 94.8218 213.893C101.459 213.893 106.27 219.175 106.27 225.613C106.27 231.885 101.459 237.167 94.8218 237.167Z" fill="white"/>
<path d="M167.665 97.8595V145.068C167.665 162.4 163.351 173.624 167.665 179.236H149.248C153.562 173.624 149.248 162.4 149.248 145.068V112.715H104.118V145.068C104.118 162.4 107.436 173.624 111.75 179.236H77.9023C82.2163 173.624 85.5347 162.4 85.5347 145.068V97.8595C85.5347 80.5277 82.2163 69.3034 77.9023 63.6912H111.75C107.436 69.3034 104.118 80.5277 104.118 97.8595V110.735H149.248V97.8595C149.248 80.5277 145.929 69.3034 141.616 63.6912H175.297C170.983 69.3034 167.665 80.5277 167.665 97.8595Z" fill="white"/>
</svg>
